HIERARCHY
ROOT Hips
{
  OFFSET -32.5998 29.0326 120.673
  CHANNELS 6 Xposition Yposition Zposition Zrotation Xrotation Yrotation
  JOINT LeftUpLeg
  {
    OFFSET 8.64259 1.95398 -2.38835
    CHANNELS 3 Zrotation Xrotation Yrotation
    JOINT LeftLeg
    {
      OFFSET 43.7702 0 0
      CHANNELS 3 Zrotation Xrotation Yrotation
      JOINT LeftFoot
      {
        OFFSET 40.6238 0 0
        CHANNELS 3 Zrotation Xrotation Yrotation
        JOINT LeftToeBase
        {
          OFFSET 12.7242 0 0
          CHANNELS 3 Zrotation Xrotation Yrotation
          End Site
          {
            OFFSET 0 0 0
          }
        }
      }
    }
  }
  JOINT RightUpLeg
  {
    OFFSET -8.2249 1.95398 -2.59336
    CHANNELS 3 Zrotation Xrotation Yrotation
    JOINT RightLeg
    {
      OFFSET 43.5653 0 0
      CHANNELS 3 Zrotation Xrotation Yrotation
      JOINT RightFoot
      {
        OFFSET 40.6238 0 0
        CHANNELS 3 Zrotation Xrotation Yrotation
        JOINT RightToeBase
        {
          OFFSET 12.7242 0 0
          CHANNELS 3 Zrotation Xrotation Yrotation
          End Site
          {
            OFFSET 0 0 0
          }
        }
      }
    }
  }
  JOINT Spine
  {
    OFFSET 0.165834 0.87714 6.61349
    CHANNELS 3 Zrotation Xrotation Yrotation
    JOINT Spine1
    {
      OFFSET 7.38963 1.71661e-005 0
      CHANNELS 3 Zrotation Xrotation Yrotation
      JOINT Spine2
      {
        OFFSET 11.9445 1.14441e-005 0
        CHANNELS 3 Zrotation Xrotation Yrotation
        JOINT Spine3
        {
          OFFSET 14.7254 4.19617e-005 0
          CHANNELS 3 Zrotation Xrotation Yrotation
          JOINT Spine4
          {
            OFFSET 10.9679 0 0
            CHANNELS 3 Zrotation Xrotation Yrotation
            JOINT RightShoulder
            {
              OFFSET 2.46616 -1.6653 3.69651
              CHANNELS 3 Zrotation Xrotation Yrotation
              JOINT RightArm
              {
                OFFSET 13.0012 0 0
                CHANNELS 3 Zrotation Xrotation Yrotation
                JOINT RightForeArm
                {
                  OFFSET 28.7848 1.62311e-005 0
                  CHANNELS 3 Zrotation Xrotation Yrotation
                  JOINT RightHand
                  {
                    OFFSET 26.5688 1.62095e-005 0
                    CHANNELS 3 Zrotation Xrotation Yrotation
                    End Site
                    {
                      OFFSET 0 0 0
                    }
                  }
                }
              }
            }
            JOINT LeftShoulder
            {
              OFFSET 2.38034 -1.29275 -3.7523
              CHANNELS 3 Zrotation Xrotation Yrotation
              JOINT LeftArm
              {
                OFFSET 16.3182 6.07031e-005 0
                CHANNELS 3 Zrotation Xrotation Yrotation
                JOINT LeftForeArm
                {
                  OFFSET 27.0901 0 0
                  CHANNELS 3 Zrotation Xrotation Yrotation
                  JOINT LeftHand
                  {
                    OFFSET 24.5451 1.51738e-005 0
                    CHANNELS 3 Zrotation Xrotation Yrotation
                    End Site
                    {
                      OFFSET 0 0 0
                    }
                  }
                }
              }
            }
            JOINT Neck
            {
              OFFSET 5.0226 -0.0266342 0
              CHANNELS 3 Zrotation Xrotation Yrotation
              JOINT Head
              {
                OFFSET 6.69364 2.86102e-005 0
                CHANNELS 3 Zrotation Xrotation Yrotation
                End Site
                {
                  OFFSET 0 0 0
                }
              }
            }
          }
        }
      }
    }
  }
}
MOTION
Frames:	6
Frame Time:	0.0416667
-283.283 94.8861 -243.126 -111.111 44.5664 -70.7609 -173.091 15.0339 94.2918 -43.9341 20.7997 0.702995 69.4597 5.88166 2.47799 17.1741 -3.18165 -3.25331 166.338 -4.90461 79.1884 -73.2762 -19.4789 -4.41898 67.2794 -3.99487 -2.12875 21.8815 0.923475 7.10725 2.05212 7.58859 -90.7572 11.7308 3.72619 -1.90117 0.0635201 3.63892 -2.06345 -22.5123 4.12506 -0.691824 -2.49961 4.12506 -0.69183 96.4082 -36.6575 -92.7141 -4.74727 19.0763 13.12 -23.2209 9.66554 -123.699 -13.354 -0.859983 2.35986 -80.656 -31.2623 91.5381 -48.9452 33.0329 54.415 32.4035 -33.7559 -112.953 -19.2793 1.65126 -16.0494 14.2026 -6.40104 -1.08406 -7.80446 -5.94709 -0.024754 
-279.864 96.5538 -239.726 -110.679 43.7377 -71.0447 -174.2 14.7404 94.0491 -35.788 23.9064 0.825804 60.6506 0.0555295 3.02387 17.9467 -2.93076 -3.1399 167.979 -12.2229 82.2656 -64.8768 -22.166 -4.7452 67.5071 -4.26874 -2.00477 23.8308 0.141573 7.21072 2.5172 7.41455 -90.6558 12.0909 4.69443 -1.82364 0.426829 4.60964 -2.02882 -22.1757 5.025 -0.325165 -2.16307 5.025 -0.325161 95.6901 -31.7516 -94.9527 -4.09017 14.6918 16.1089 -24.5487 12.3015 -124.475 -11.9234 -0.769876 2.40891 -79.886 -28.8498 92.8603 -46.2756 30.4848 56.1547 30.8628 -34.8314 -118.35 -18.0324 1.82465 -18.2257 10.9987 -9.14111 -2.68643 -7.02165 -8.29239 -0.418038 
-276.548 98.1266 -236.051 -110.224 43.4947 -72.2608 -174.782 12.7449 92.948 -23.6529 24.8825 0.322498 50.6511 -6.57917 1.07035 17.4373 -2.51022 -4.26047 169.146 -17.3194 83.824 -55.969 -23.3728 -5.06572 69.1013 -5.60459 -2.30203 24.412 -0.232426 7.75231 2.77376 7.33929 -90.4326 12.2401 5.30813 -1.45686 0.578901 5.23886 -1.68964 -22.0437 5.49985 0.210615 -2.0311 5.49983 0.210608 95.2782 -28.536 -96.5082 -1.9059 6.98066 15.8418 -26.9679 16.1717 -123.286 -9.86181 -0.657636 2.68164 -79.0736 -28.3283 94.4603 -38.5576 26.7162 53.5199 28.0048 -33.2132 -122.97 -15.5738 1.56684 -18.6364 9.56043 -10.4739 -3.29247 -8.69082 -9.453 -1.79772 
-272.513 99.2255 -232.268 -106.514 42.8767 -75.5612 -175.065 15.2723 92.4058 -18.9979 24.1794 -0.472563 52.7927 -5.20962 -0.830796 10.4942 -10.277 3.42763 169.982 -17.9335 86.13 -47.092 -19.5725 -3.54008 71.6717 -7.14539 -0.565482 24.7322 -0.497484 8.27753 2.63788 6.98738 -90.1735 12.9348 5.15432 -0.972806 1.27353 5.10652 -1.19928 -21.3436 5.20773 0.625561 -1.33095 5.20775 0.625564 94.9252 -26.7388 -97.6854 2.23074 -1.56932 15.8527 -28.8527 19.8391 -121.735 -8.82886 -0.532269 1.93031 -79.8726 -28.3359 92.8469 -34.272 20.1356 52.8757 26.7261 -31.7629 -126.129 -13.4395 1.22404 -17.8917 8.80762 -10.6653 -3.85631 -11.033 -9.4416 -3.02033 
-268.084 99.4111 -228.055 -101.878 41.8997 -79.7361 -175.886 20.4594 91.4299 -22.7258 23.0422 -0.498097 57.6748 -2.1158 0.871886 10.3811 -10.7271 4.13896 169.888 -15.2047 87.6025 -40.4992 -14.7606 -1.24732 71.6309 -7.38278 -1.80288 26.7461 -1.30209 8.52858 2.41533 6.7636 -89.9501 13.37 4.81644 -0.511399 1.70777 4.78925 -0.723383 -20.8976 4.74694 0.963153 -0.88491 4.74696 0.963148 95.2158 -26.9631 -97.0104 6.65686 -5.93204 17.4889 -28.5284 20.8629 -121.412 -10.7146 -0.607523 1.46966 -80.793 -32.5015 91.3831 -26.0468 17.3792 46.5943 24.8111 -28.9155 -127.321 -10.9296 0.711393 -15.0573 11.6301 -10.4475 -1.41791 -12.8132 -9.43827 -5.50896 
-263.285 98.654 -223.669 -98.8696 40.4261 -82.5908 -176.356 24.7567 91.2002 -30.0687 22.7964 -0.245266 61.4919 0.628335 2.36458 13.7048 -7.27753 1.31402 170.554 -9.3634 89.4426 -40.3842 -8.47102 0.13948 72.0097 -7.19663 -2.868 23.1728 0.293902 7.56076 2.12124 6.86945 -89.7976 13.1472 4.30779 -0.12719 1.48338 4.298 -0.317015 -21.1064 4.1465 1.17565 -1.09372 4.14648 1.17565 94.9422 -30.3799 -96.7631 10.7362 -6.67254 20.1224 -27.5113 19.7172 -120.778 -13.7426 -0.872879 2.25447 -81.8532 -37.1048 89.8788 -18.8876 15.4346 35.6419 24.8328 -26.7078 -125.965 -7.47488 0.227139 -11.5143 17.8461 -10.0669 1.16879 -14.3539 -9.42348 -7.25587 
